<svg xmlns="http://www.w3.org/2000/svg" viewBox="0 0 1200 800" fill="none">
  <!-- Background -->
  <rect width="1200" height="800" fill="#F8FDFC" />
  
  <!-- Decorative elements -->
  <circle cx="600" cy="400" r="300" fill="#E8F9F7" opacity="0.5" />
  <circle cx="200" cy="200" r="50" fill="#42B4AC" opacity="0.2" />
  <circle cx="1000" cy="600" r="80" fill="#42B4AC" opacity="0.2" />
  <circle cx="800" cy="200" r="30" fill="#42B4AC" opacity="0.3" />
  
  <!-- Team table -->
  <rect x="300" y="450" width="600" height="30" rx="5" fill="#42B4AC" />
  <rect x="330" y="480" width="20" height="100" rx="5" fill="#42B4AC" />
  <rect x="850" y="480" width="20" height="100" rx="5" fill="#42B4AC" />
  
  <!-- People around the table -->
  <!-- Person 1 -->
  <circle cx="400" cy="380" r="50" fill="#FFC8DD" />
  <circle cx="400" cy="320" r="30" fill="#FFAFCC" />
  <rect x="380" y="420" width="40" height="70" rx="10" fill="#FFAFCC" />
  
  <!-- Person 2 -->
  <circle cx="600" cy="380" r="50" fill="#A2D2FF" />
  <circle cx="600" cy="320" r="30" fill="#BDE0FE" />
  <rect x="580" y="420" width="40" height="70" rx="10" fill="#BDE0FE" />
  
  <!-- Person 3 -->
  <circle cx="800" cy="380" r="50" fill="#CDB4DB" />
  <circle cx="800" cy="320" r="30" fill="#DBC1E7" />
  <rect x="780" y="420" width="40" height="70" rx="10" fill="#DBC1E7" />
  
  <!-- Feedback elements -->
  <!-- Speech bubbles -->
  <path d="M450 280 L470 250 L490 280 Z" fill="#42B4AC" />
  <rect x="430" y="230" width="100" height="50" rx="10" fill="#42B4AC" />
  <text x="440" y="260" font-family="Arial" font-size="12" fill="white">Great job!</text>
  
  <path d="M650 280 L670 250 L690 280 Z" fill="#42B4AC" />
  <rect x="630" y="230" width="100" height="50" rx="10" fill="#42B4AC" />
  <text x="640" y="260" font-family="Arial" font-size="12" fill="white">Thank you!</text>
  
  <path d="M850 280 L870 250 L890 280 Z" fill="#42B4AC" />
  <rect x="830" y="230" width="100" height="50" rx="10" fill="#42B4AC" />
  <text x="840" y="260" font-family="Arial" font-size="12" fill="white">Awesome!</text>
  
  <!-- Floating elements -->
  <circle cx="350" cy="180" r="30" fill="#FF8FAB" opacity="0.8" />
  <path d="M350 165 L350 195 M335 180 L365 180" stroke="white" stroke-width="5" />
  
  <circle cx="500" cy="150" r="25" fill="#42B4AC" opacity="0.8" />
  <path d="M500 140 L500 160 M490 150 L510 150" stroke="white" stroke-width="4" />
  
  <circle cx="650" cy="130" r="35" fill="#FF8FAB" opacity="0.8" />
  <path d="M650 115 L650 145 M635 130 L665 130" stroke="white" stroke-width="5" />
  
  <circle cx="780" cy="170" r="28" fill="#42B4AC" opacity="0.8" />
  <path d="M780 160 L780 180 M770 170 L790 170" stroke="white" stroke-width="4" />
  
  <!-- Trophy symbols -->
  <path d="M900 180 L920 180 L915 150 L905 150 Z" fill="gold" />
  <rect x="905" y="180" width="10" height="15" fill="gold" />
  <rect x="900" y="195" width="20" height="5" rx="2" fill="gold" />
  
  <!-- Connection lines (representing collaboration) -->
  <line x1="430" y1="350" x2="570" y2="350" stroke="#42B4AC" stroke-width="3" stroke-dasharray="5,5" />
  <line x1="630" y1="350" x2="770" y2="350" stroke="#42B4AC" stroke-width="3" stroke-dasharray="5,5" />
  <line x1="410" y1="400" x2="410" y2="450" stroke="#42B4AC" stroke-width="2" />
  <line x1="600" y1="400" x2="600" y2="450" stroke="#42B4AC" stroke-width="2" />
  <line x1="790" y1="400" x2="790" y2="450" stroke="#42B4AC" stroke-width="2" />
</svg> 